#N canvas 54 -8 1304 725 10;
#X declare -lib mrpeach;
#N canvas 304 117 450 300 (subpatch) 0;
#X obj 7 -37 inlet~;
#X obj 276 141 clip~ -0.5 0.5;
#X obj 277 199 outlet~;
#X obj 73 71 knob 20 20 0 1 0 0 empty empty Clip 0 -8 0 8 -262144 -1
-1 0 1;
#X obj 12 68 knob 20 20 0 20 0 0 empty empty Mult 0 -8 0 8 -262144
-1 -1 0 1;
#X obj 324 84 * -1;
#X text 15 21 SimpleFuzz;
#X obj 77 -37 inlet;
#X obj 135 -39 inlet;
#X obj 342 24 autoscale 0 1;
#X obj 316 -9 autoscale 1 20;
#X obj 254 76 *~ 1;
#X connect 0 0 11 0;
#X connect 1 0 2 0;
#X connect 3 0 5 0;
#X connect 3 0 1 2;
#X connect 4 0 11 1;
#X connect 5 0 1 1;
#X connect 7 0 10 0;
#X connect 8 0 9 0;
#X connect 9 0 3 0;
#X connect 10 0 4 0;
#X connect 11 0 1 0;
#X coords 0 1 100 -1 100 100 1 0 0;
#X restore -313 124 graph;
#X obj -321 18 import mrpeach;
#X obj -116 12 udpreceive 8000;
#X obj -116 46 unpackOSC;
#X obj -30 45 print;
#N canvas 115 161 450 300 (subpatch) 0;
#X text 14 10 SimpleDelay;
#X obj 177 8 inlet~;
#X obj 210 221 outlet~;
#X obj 208 55 delwrite~ delay 500;
#X obj 228 111 *~ 0.8;
#X obj 32 51 knob 32 32 0 127 0 0 empty empty empty 0 -8 0 8 -262144
-1 -1 0 1;
#X obj 288 83 autoscale 0 2;
#X obj 303 14 inlet;
#X obj 211 166 delread~ delay 200;
#X connect 1 0 3 0;
#X connect 4 0 3 0;
#X connect 5 0 6 0;
#X connect 6 0 4 1;
#X connect 7 0 5 0;
#X connect 8 0 4 0;
#X connect 8 0 2 0;
#X coords 0 1 100 -1 100 100 1 0 0;
#X restore -264 252 graph;
#X obj -116 81 routeOSC /knob1 /knob2 /knob3;
#X obj 17 412 output~;
#X obj -303 57 adc~;
#X connect 0 0 5 0;
#X connect 2 0 3 0;
#X connect 3 0 4 0;
#X connect 3 0 6 0;
#X connect 5 0 7 0;
#X connect 5 0 7 1;
#X connect 6 0 0 1;
#X connect 6 1 0 2;
#X connect 6 2 5 1;
#X connect 8 0 0 0;
#X connect 8 1 0 0;
