#N canvas 399 111 892 516 10;
#X obj 80 -71 adc~;
#X obj 79 322 dac~;
#X obj 500 15 hsl 128 15 0 10 0 0 empty empty empty -2 -8 0 10 -262144
-1 -1 2100 1;
#X obj 338 122 *~ 2;
#X obj 338 142 +~ 2;
#X obj 377 164 *~ 2;
#X obj 376 187 +~ 2;
#X obj 124 96 delwrite~ phase2 100;
#X obj 376 213 vd~ phase2;
#X obj 377 120 wrap~;
#X obj 347 65 phasor~;
#X obj 376 99 +~ 0.5;
#X obj 338 99 cos~;
#X obj 377 140 cos~;
#X obj 503 112 hsl 128 15 0 3 0 0 empty empty empty -2 -8 0 10 -262144
-1 -1 7500 1;
#X obj 376 236 *~ 0.8;
#X obj 338 297 *~ 0.8;
#X obj 447 324 s~ output;
#X obj 111 282 r~ output;
#X obj 532 231 hsl 128 15 -0.9 0.9 0 0 empty empty empty -2 -8 0 10
-262144 -1 -1 3900 1;
#X obj 339 274 vd~ phase1;
#X obj 125 36 delwrite~ phase1 100;
#X floatatom 497 39 5 0 0 0 - - -;
#X floatatom 501 138 5 0 0 0 - - -;
#X floatatom 529 252 5 0 0 0 - - -;
#X text 443 405 comment;
#X text 252 30;
#X text 410 65;
#X text 448 210;
#X text 442 274;
#X text 640 11 <-- Speed;
#X text 645 110 <-- Depth;
#X text 672 231 <-- Feedback;
#X connect 0 0 1 0;
#X connect 0 0 1 1;
#X connect 0 0 7 0;
#X connect 0 0 21 0;
#X connect 2 0 10 0;
#X connect 2 0 22 0;
#X connect 3 0 4 0;
#X connect 4 0 20 0;
#X connect 5 0 6 0;
#X connect 6 0 8 0;
#X connect 8 0 15 0;
#X connect 8 0 17 0;
#X connect 9 0 13 0;
#X connect 10 0 11 0;
#X connect 10 0 12 0;
#X connect 11 0 9 0;
#X connect 12 0 3 0;
#X connect 13 0 5 0;
#X connect 14 0 3 1;
#X connect 14 0 5 1;
#X connect 14 0 4 1;
#X connect 14 0 6 1;
#X connect 14 0 23 0;
#X connect 15 0 7 0;
#X connect 16 0 21 0;
#X connect 18 0 1 1;
#X connect 18 0 1 0;
#X connect 19 0 16 1;
#X connect 19 0 15 1;
#X connect 19 0 24 0;
#X connect 20 0 16 0;
#X connect 20 0 17 0;
