#N canvas 687 170 450 300 10;
#N canvas 192 154 450 300 (subpatch) 0;
#X obj 275 25 inlet~;
#X obj 280 85 * 1;
#X obj 276 141 clip~ -0.5 0.5;
#X obj 277 199 outlet~;
#X obj 73 71 knob 20 20 0 1 0 0 empty empty Clip 0 -8 0 8 -262144 -1
-1 0 1;
#X obj 12 68 knob 20 20 0 20 0 0 empty empty Mult 0 -8 0 8 -262144
-1 -1 0 1;
#X obj 324 84 * -1;
#X text 15 21 SimpleFuzz;
#X connect 0 0 1 0;
#X connect 1 0 2 0;
#X connect 2 0 3 0;
#X connect 4 0 2 2;
#X connect 4 0 6 0;
#X connect 5 0 1 1;
#X connect 6 0 2 1;
#X coords 0 1 100 -1 100 100 1 0 0;
#X restore -343 64 graph;
